<svg xmlns="http://www.w3.org/2000/svg" xmlns:xlink="http://www.w3.org/1999/xlink" width="500" zoomAndPan="magnify" viewBox="0 0 375 374.999991" height="500" preserveAspectRatio="xMidYMid meet" version="1.0"><defs><g/></defs><path fill="#3d084d" d="M 32.84375 169.652344 L 84.015625 169.652344 C 92.695312 169.652344 99.726562 176.683594 99.726562 185.363281 L 99.726562 216.78125 C 99.726562 225.457031 92.695312 232.492188 84.015625 232.492188 L 32.84375 232.492188 C 24.167969 232.492188 17.136719 225.457031 17.136719 216.78125 L 17.136719 185.363281 C 17.136719 176.683594 24.167969 169.652344 32.84375 169.652344 Z M 32.84375 169.652344 " fill-opacity="1" fill-rule="nonzero"/><g fill="#ffffff" fill-opacity="1"><g transform="translate(34.084043, 212.321895)"><g><path d="M 2.097656 -2.050781 C 6.421875 0.179688 10.390625 0.402344 12.175781 0.265625 C 18.148438 -0.0429688 21.808594 -4.101562 21.808594 -9.410156 C 21.808594 -14.492188 17.527344 -17.347656 12.574219 -19.175781 C 10.746094 -19.800781 9.1875 -20.601562 9.007812 -22.386719 C 8.875 -24.171875 9.898438 -25.820312 12.175781 -25.953125 C 13.15625 -26 15.164062 -26.042969 18.683594 -24.617188 L 19.488281 -30.769531 C 15.386719 -32.199219 13.199219 -32.199219 11.550781 -32.109375 C 6.242188 -31.839844 2.542969 -27.738281 2.542969 -22.386719 C 2.542969 -17.035156 7 -14.492188 11.996094 -12.664062 C 13.78125 -12.039062 15.164062 -11.238281 15.296875 -9.410156 C 15.472656 -7.671875 13.867188 -6.332031 11.996094 -6.199219 C 10.523438 -6.066406 6.554688 -6.152344 2.898438 -8.742188 Z M 2.097656 -2.050781 "/></g></g></g><g fill="#ffffff" fill-opacity="1"><g transform="translate(55.887924, 212.321895)"><g><path d="M 9.945312 0 L 9.945312 -12.175781 L 16.097656 -12.175781 C 28.453125 -12.175781 28.496094 -31.839844 16.097656 -31.839844 L 3.566406 -31.839844 L 3.566406 0 Z M 9.945312 -18.375 L 9.945312 -25.507812 L 15.5625 -25.507812 C 19.84375 -25.507812 19.84375 -18.375 15.5625 -18.375 Z M 9.945312 -18.375 "/></g></g></g><g fill="#000000" fill-opacity="1"><g transform="translate(108.563742, 208.551286)"><g><path d="M 3.257812 -29.117188 L 3.257812 0 L 18.328125 0 L 18.328125 -5.824219 L 9.082031 -5.824219 L 9.082031 -29.117188 Z M 3.257812 -29.117188 "/></g></g></g><g fill="#000000" fill-opacity="1"><g transform="translate(139.637493, 208.551286)"><g><path d="M 9.082031 0 L 9.082031 -29.117188 L 3.257812 -29.117188 L 3.257812 0 Z M 9.082031 0 "/></g></g></g><g fill="#000000" fill-opacity="1"><g transform="translate(163.014659, 208.551286)"><g><path d="M 17.796875 -23.292969 L 17.796875 -29.117188 L 3.257812 -29.117188 L 3.257812 0 L 9.082031 0 L 9.082031 -11.648438 L 16.492188 -11.648438 L 16.492188 -17.472656 L 9.082031 -17.472656 L 9.082031 -23.292969 Z M 17.796875 -23.292969 "/></g></g></g><g fill="#000000" fill-opacity="1"><g transform="translate(193.355404, 208.551286)"><g><path d="M 18.328125 0 L 18.328125 -5.824219 L 9.082031 -5.824219 L 9.082031 -11.648438 L 16.738281 -11.648438 L 16.738281 -17.472656 L 9.082031 -17.472656 L 9.082031 -23.292969 L 17.835938 -23.292969 L 17.835938 -29.117188 L 3.257812 -29.117188 L 3.257812 0 Z M 18.328125 0 "/></g></g></g><g fill="#000000" fill-opacity="1"><g transform="translate(224.877112, 208.551286)"><g><path d="M 16.617188 -16.777344 L 5.132812 -29.566406 L 3.257812 -29.566406 L 3.257812 0 L 9.164062 0 L 9.164062 -16.25 L 16.617188 -8.429688 L 24.070312 -16.25 L 24.027344 0 L 29.933594 0 L 29.933594 -29.566406 L 28.101562 -29.566406 Z M 16.617188 -16.777344 "/></g></g></g><g fill="#000000" fill-opacity="1"><g transform="translate(269.104312, 208.551286)"><g><path d="M 9.082031 0 L 9.082031 -29.117188 L 3.257812 -29.117188 L 3.257812 0 Z M 9.082031 0 "/></g></g></g><g fill="#000000" fill-opacity="1"><g transform="translate(292.481477, 208.551286)"><g><path d="M 9.082031 -15.84375 L 23.824219 0.609375 L 25.371094 0.609375 L 25.371094 -29.078125 L 19.507812 -29.078125 L 19.507812 -12.625 L 4.804688 -29.730469 L 3.257812 -29.730469 L 3.257812 0 L 9.082031 0 Z M 9.082031 -15.84375 "/></g></g></g></svg>